HIERARCHY
ROOT Hips
{
  OFFSET 5.84602e-005 68.8428 3.50346
  CHANNELS 6 Xposition Yposition Zposition Zrotation Xrotation Yrotation
  JOINT Spine
  {
    OFFSET 0 8.597 -4.6522
    CHANNELS 3 Zrotation Xrotation Yrotation
    JOINT Spine1
    {
      OFFSET 0 7.8454 0.4098
      CHANNELS 3 Zrotation Xrotation Yrotation
      JOINT Spine2
      {
        OFFSET 0 9.7078 -2.1609
        CHANNELS 3 Zrotation Xrotation Yrotation
        JOINT Neck
        {
          OFFSET 0 21.8761 -0.4549
          CHANNELS 3 Zrotation Xrotation Yrotation
          JOINT Head
          {
            OFFSET 0 12.3537 3.3602
            CHANNELS 3 Zrotation Xrotation Yrotation
            End Site
            {
              OFFSET 0.0001 18.9506 0.5657
            }
          }
        }
        JOINT LeftShoulder
        {
          OFFSET 2.2086 21.1115 7.2329
          CHANNELS 3 Zrotation Xrotation Yrotation
          JOINT LeftArm
          {
            OFFSET 13.1193 3.0282 -4.8998
            CHANNELS 3 Zrotation Xrotation Yrotation
            JOINT LeftForeArm
            {
              OFFSET 27.4081 -0.0973053 -0.2375
              CHANNELS 3 Zrotation Xrotation Yrotation
              JOINT LeftHand
              {
                OFFSET 22.8641 0.0662994 -0.1369
                CHANNELS 3 Zrotation Xrotation Yrotation
                JOINT LeftHandIndex1
                {
                  OFFSET 8.8614 0.775009 2.4612
                  CHANNELS 3 Zrotation Xrotation Yrotation
                  JOINT LeftHandIndex2
                  {
                    OFFSET 3.3146 -0.808304 0.5841
                    CHANNELS 3 Zrotation Xrotation Yrotation
                    JOINT LeftHandIndex3
                    {
                      OFFSET 2.2628 -0.552002 0.3989
                      CHANNELS 3 Zrotation Xrotation Yrotation
                      End Site
                      {
                        OFFSET 1.6102 -0.4807 0.2612
                      }
                    }
                  }
                }
                JOINT LeftHandMiddle1
                {
                  OFFSET 8.9937 0.895004 0.2143
                  CHANNELS 3 Zrotation Xrotation Yrotation
                  JOINT LeftHandMiddle2
                  {
                    OFFSET 4.0984 0.0113983 -0.0242
                    CHANNELS 3 Zrotation Xrotation Yrotation
                    JOINT LeftHandMiddle3
                    {
                      OFFSET 2.2716 0.00689697 -0.0138001
                      CHANNELS 3 Zrotation Xrotation Yrotation
                      End Site
                      {
                        OFFSET 2.0404 -0.1441 0.0027
                      }
                    }
                  }
                }
                JOINT LeftHandRing1
                {
                  OFFSET 8.5234 0.597198 -2.0164
                  CHANNELS 3 Zrotation Xrotation Yrotation
                  JOINT LeftHandRing2
                  {
                    OFFSET 3.7188 -0.188293 -0.2328
                    CHANNELS 3 Zrotation Xrotation Yrotation
                    JOINT LeftHandRing3
                    {
                      OFFSET 2.1191 -0.106598 -0.1332
                      CHANNELS 3 Zrotation Xrotation Yrotation
                      End Site
                      {
                        OFFSET 1.8737 -0.2304 -0.0886
                      }
                    }
                  }
                }
                JOINT LeftHandPinky1
                {
                  OFFSET 7.9094 -0.601089 -3.4825
                  CHANNELS 3 Zrotation Xrotation Yrotation
                  JOINT LeftHandPinky2
                  {
                    OFFSET 2.2874 -0.477005 -0.6314
                    CHANNELS 3 Zrotation Xrotation Yrotation
                    JOINT LeftHandPinky3
                    {
                      OFFSET 1.6774 -0.349396 -0.4633
                      CHANNELS 3 Zrotation Xrotation Yrotation
                      End Site
                      {
                        OFFSET 1.4888 -0.4091 -0.3416
                      }
                    }
                  }
                }
                JOINT LeftHandThumb1
                {
                  OFFSET 1.833 -1.3875 1.3896
                  CHANNELS 3 Zrotation Xrotation Yrotation
                  JOINT LeftHandThumb2
                  {
                    OFFSET 3.4129 -1.121 2.5732
                    CHANNELS 3 Zrotation Xrotation Yrotation
                    JOINT LeftHandThumb3
                    {
                      OFFSET 2.2474 -0.804199 1.6192
                      CHANNELS 3 Zrotation Xrotation Yrotation
                      End Site
                      {
                        OFFSET 1.6527 -0.5689 1.1317
                      }
                    }
                  }
                }
              }
            }
          }
        }
        JOINT RightShoulder
        {
          OFFSET -2.2086 21.1115 7.2329
          CHANNELS 3 Zrotation Xrotation Yrotation
          JOINT RightArm
          {
            OFFSET -13.1216 3.0287 -4.9007
            CHANNELS 3 Zrotation Xrotation Yrotation
            JOINT RightForeArm
            {
              OFFSET -27.4081 -0.0973053 -0.2375
              CHANNELS 3 Zrotation Xrotation Yrotation
              JOINT RightHand
              {
                OFFSET -22.8641 0.0664063 -0.1369
                CHANNELS 3 Zrotation Xrotation Yrotation
                JOINT RightHandIndex1
                {
                  OFFSET -8.8614 0.774994 2.4612
                  CHANNELS 3 Zrotation Xrotation Yrotation
                  JOINT RightHandIndex2
                  {
                    OFFSET -3.3146 -0.808304 0.5841
                    CHANNELS 3 Zrotation Xrotation Yrotation
                    JOINT RightHandIndex3
                    {
                      OFFSET -2.2628 -0.552002 0.3989
                      CHANNELS 3 Zrotation Xrotation Yrotation
                      End Site
                      {
                        OFFSET -1.6102 -0.4807 0.2612
                      }
                    }
                  }
                }
                JOINT RightHandMiddle1
                {
                  OFFSET -8.9937 0.894989 0.2143
                  CHANNELS 3 Zrotation Xrotation Yrotation
                  JOINT RightHandMiddle2
                  {
                    OFFSET -4.0984 0.0113983 -0.0242
                    CHANNELS 3 Zrotation Xrotation Yrotation
                    JOINT RightHandMiddle3
                    {
                      OFFSET -2.2716 0.00691223 -0.0138001
                      CHANNELS 3 Zrotation Xrotation Yrotation
                      End Site
                      {
                        OFFSET -2.0404 -0.1441 0.0027
                      }
                    }
                  }
                }
                JOINT RightHandRing1
                {
                  OFFSET -8.5234 0.597198 -2.0164
                  CHANNELS 3 Zrotation Xrotation Yrotation
                  JOINT RightHandRing2
                  {
                    OFFSET -3.7188 -0.188309 -0.2328
                    CHANNELS 3 Zrotation Xrotation Yrotation
                    JOINT RightHandRing3
                    {
                      OFFSET -2.1191 -0.106598 -0.1332
                      CHANNELS 3 Zrotation Xrotation Yrotation
                      End Site
                      {
                        OFFSET -1.8737 -0.2304 -0.0886
                      }
                    }
                  }
                }
                JOINT RightHandPinky1
                {
                  OFFSET -7.9094 -0.601105 -3.4825
                  CHANNELS 3 Zrotation Xrotation Yrotation
                  JOINT RightHandPinky2
                  {
                    OFFSET -2.2874 -0.477005 -0.6314
                    CHANNELS 3 Zrotation Xrotation Yrotation
                    JOINT RightHandPinky3
                    {
                      OFFSET -1.6774 -0.349396 -0.4633
                      CHANNELS 3 Zrotation Xrotation Yrotation
                      End Site
                      {
                        OFFSET -1.4888 -0.4091 -0.3416
                      }
                    }
                  }
                }
                JOINT RightHandThumb1
                {
                  OFFSET -1.833 -1.38751 1.3896
                  CHANNELS 3 Zrotation Xrotation Yrotation
                  JOINT RightHandThumb2
                  {
                    OFFSET -3.41299 -1.12099 2.5732
                    CHANNELS 3 Zrotation Xrotation Yrotation
                    JOINT RightHandThumb3
                    {
                      OFFSET -2.24741 -0.804108 1.6192
                      CHANNELS 3 Zrotation Xrotation Yrotation
                      End Site
                      {
                        OFFSET -1.6527 -0.5689 1.1317
                      }
                    }
                  }
                }
              }
            }
          }
        }
      }
    }
  }
  JOINT RightUpLeg
  {
    OFFSET -9.1966 3.8861 -0.7581
    CHANNELS 3 Zrotation Xrotation Yrotation
    JOINT RightLeg
    {
      OFFSET -0.7359 -41.0265 0
      CHANNELS 3 Zrotation Xrotation Yrotation
      JOINT RightFoot
      {
        OFFSET 0 -40.2855 0
        CHANNELS 3 Zrotation Xrotation Yrotation
        JOINT RightToeBase
        {
          OFFSET 0 -5.6122 11.7359
          CHANNELS 3 Zrotation Xrotation Yrotation
          End Site
          {
            OFFSET 0 0 7.8731
          }
        }
      }
    }
  }
  JOINT LeftUpLeg
  {
    OFFSET 9.1965 3.8864 -0.7581
    CHANNELS 3 Zrotation Xrotation Yrotation
    JOINT LeftLeg
    {
      OFFSET 0.7359 -41.0268 0
      CHANNELS 3 Zrotation Xrotation Yrotation
      JOINT LeftFoot
      {
        OFFSET 0 -40.2855 0
        CHANNELS 3 Zrotation Xrotation Yrotation
        JOINT LeftToeBase
        {
          OFFSET 0 -5.6122 11.7359
          CHANNELS 3 Zrotation Xrotation Yrotation
          End Site
          {
            OFFSET 0 0 7.8731
          }
        }
      }
    }
  }
}
MOTION
Frames:	6
Frame Time:	0.0333333
1.62983 41.5759 3.18934 0 32.9236 -0 -1.27926 -1.0165 -1.77604 -2.59001 -1.99263 -3.57516 -2.59001 -1.99262 -3.57516 -0.000111179 8.22794 -2.88531e-007 -0.0630117 13.7399 0.0095885 -11.2818 -4.31813 -39.7363 -41.4612 -5.81289 23.2967 -20.499 14.9472 -56.3373 33.0128 -30.6986 -16.3558 -1.52354e-008 -2.53522e-007 2.87193e-007 -3.97569e-016 1.2921e-015 3.18055e-015 -3.97569e-016 3.97569e-016 -0 -1.52354e-008 -2.53522e-007 2.87193e-007 -0.0145904 -8.75137e-005 -3.67071e-006 -1.3861e-008 -2.5355e-007 2.87161e-007 -1.52354e-008 -2.53522e-007 2.87193e-007 -0.0187794 -0.00117824 5.73827e-005 1.98785e-016 0 9.54166e-015 -1.52354e-008 -2.53522e-007 2.87193e-007 -0.0122887 -0.00325028 0.000681644 -1.98785e-016 9.93923e-016 6.36111e-015 -1.52354e-008 -2.53522e-007 2.87193e-007 -3.97569e-016 1.2921e-015 3.18055e-015 -3.97569e-016 3.97569e-016 -0 47.6255 -4.39823 -14.0615 33.797 -4.25736 -15.1349 36.5199 15.9134 9.78544 46.4737 -45.1704 29.0192 -4.77083e-015 -7.95139e-016 -7.85199e-015 -4.77083e-015 -1.59028e-015 -1.59028e-015 -4.77083e-015 7.95139e-016 1.2921e-015 -4.77083e-015 -7.95139e-016 -7.85199e-015 0.0149999 -8.81787e-005 2.3751e-006 -1.59028e-015 7.95139e-016 6.55989e-015 -4.77083e-015 -7.95139e-016 -7.85199e-015 0.0189862 -0.00119227 -6.14192e-005 1.59028e-015 7.95139e-016 5.96354e-016 -4.77083e-015 -7.95139e-016 -7.85199e-015 0.0122907 -0.00325629 -0.000673736 -0 0 5.86415e-015 -4.77083e-015 -7.95139e-016 -7.85199e-015 -4.77083e-015 -1.59028e-015 -1.59028e-015 -4.77083e-015 7.95139e-016 1.2921e-015 -59.6266 -17.2743 -20.1883 -51.8667 89.6798 49.982 50.0525 38.6311 -56.0638 -1.52312e-006 1.99744e-006 -4.74252e-006 59.5863 -17.3059 20.1118 44.9663 89.7257 -43.0727 -50.1566 38.5919 56.1231 -7.92976e-007 -2.14639e-006 -2.44697e-006 
1.62983 41.6112 2.94139 0 33.3493 -0 -1.27926 -1.01651 -1.77605 -2.59001 -1.99263 -3.57516 -2.59001 -1.99262 -3.57516 -2.96147e-005 7.59302 -3.94512e-005 -0.0618818 12.7181 0.00958642 -11.1803 -4.50409 -39.7667 -41.4681 -5.81572 23.2802 -20.5647 15.0825 -56.6962 33.2178 -30.6159 -16.1906 1.98785e-016 -1.2921e-015 3.18055e-015 8.91889e-009 2.46779e-007 -2.80074e-007 -1.98785e-016 -9.93923e-017 -6.36111e-015 1.98785e-016 -1.2921e-015 3.18055e-015 -0.0146441 -9.01807e-005 2.11909e-006 -0 -5.96354e-016 -0 1.98785e-016 -1.2921e-015 3.18055e-015 -0.0187354 -0.00117762 6.50441e-005 1.98785e-016 -8.94531e-016 -3.18055e-015 1.98785e-016 -1.2921e-015 3.18055e-015 -0.0122653 -0.00324809 0.000685487 -7.75719e-009 -2.46503e-007 2.79984e-007 1.98785e-016 -1.2921e-015 3.18055e-015 8.91889e-009 2.46779e-007 -2.80074e-007 -1.98785e-016 -9.93923e-017 -6.36111e-015 47.6255 -4.39823 -14.0615 33.7755 -4.2722 -15.3306 36.5199 15.9134 9.78543 46.4737 -45.1704 29.0192 -1.59028e-015 1.51076e-014 6.65929e-015 -2.37247e-030 1.59028e-014 8.54774e-015 4.55184e-031 1.19271e-014 -2.18663e-015 -1.59028e-015 1.51076e-014 6.65929e-015 0.0150022 -9.72222e-005 -2.89643e-007 1.59028e-015 7.95139e-016 4.67144e-015 -1.59028e-015 1.51076e-014 6.65929e-015 0.0190036 -0.00118731 -5.74155e-005 -3.18055e-015 1.59028e-015 3.27995e-015 -1.59028e-015 1.51076e-014 6.65929e-015 0.0122792 -0.00325001 -0.000684313 3.18055e-015 0 6.95746e-016 -1.59028e-015 1.51076e-014 6.65929e-015 -2.37247e-030 1.59028e-014 8.54774e-015 4.55184e-031 1.19271e-014 -2.18663e-015 -59.6522 -17.8555 -20.3548 -110.753 89.7038 108.86 50.3787 38.4936 -56.2404 -7.28577e-007 -1.49438e-007 -2.2965e-006 59.6119 -17.886 20.2784 116.285 89.7559 -114.383 -50.4814 38.4539 56.2983 -7.9294e-007 -2.1465e-006 -2.44688e-006 
1.62984 41.6469 2.69348 0 33.7749 -0 -1.27927 -1.01652 -1.77605 -2.59002 -1.99262 -3.57518 -2.59002 -1.99264 -3.57518 6.84293e-006 6.95707 4.57871e-006 -0.0607458 11.6931 0.00958545 -11.0788 -4.69009 -39.7967 -41.475 -5.81856 23.2637 -20.6296 15.2182 -57.0551 33.4224 -30.5326 -16.0258 5.96354e-016 -9.93923e-017 1.27222e-014 4.96564e-032 -2.98177e-016 9.54166e-015 -3.97569e-016 3.97569e-016 1.59028e-014 5.96354e-016 -9.93923e-017 1.27222e-014 -0.0146274 -9.11948e-005 1.1791e-006 1.22855e-009 2.40034e-007 -2.72904e-007 5.96354e-016 -9.93923e-017 1.27222e-014 -0.0187344 -0.00117827 5.89537e-005 0 4.96962e-016 -0 5.96354e-016 -9.93923e-017 1.27222e-014 -0.0122782 -0.00324955 0.000674024 7.35503e-015 1.08338e-014 -3.18055e-015 5.96354e-016 -9.93923e-017 1.27222e-014 4.96564e-032 -2.98177e-016 9.54166e-015 -3.97569e-016 3.97569e-016 1.59028e-014 47.6255 -4.39818 -14.0615 33.7539 -4.28694 -15.5264 36.5199 15.9134 9.78543 46.4737 -45.1704 29.0193 -4.77083e-015 -1.59028e-015 -5.56597e-015 -4.77083e-015 -3.18055e-015 -5.96354e-015 -4.77083e-015 0 2.78299e-015 -4.77083e-015 -1.59028e-015 -5.56597e-015 0.0149984 -8.1162e-005 1.39076e-006 -3.18055e-015 -1.59028e-015 4.37326e-015 -4.77083e-015 -1.59028e-015 -5.56597e-015 0.0190149 -0.00119586 -5.93321e-005 -1.59028e-015 -1.59028e-015 5.06901e-015 -4.77083e-015 -1.59028e-015 -5.56597e-015 0.0122757 -0.00325173 -0.000667891 4.77083e-015 0 -6.85807e-015 -4.77083e-015 -1.59028e-015 -5.56597e-015 -4.77083e-015 -3.18055e-015 -5.96354e-015 -4.77083e-015 0 2.78299e-015 -59.6797 -18.4364 -20.5221 -143.464 89.4928 141.562 50.7037 38.3551 -56.4156 7.28558e-007 1.49314e-007 2.29652e-006 59.6392 -18.4661 20.4458 149.268 89.5229 -147.358 -50.8053 38.3151 56.4724 7.9289e-007 2.14664e-006 2.44677e-006 
1.62984 41.6831 2.44561 0 34.2006 -0 -1.27926 -1.01652 -1.77605 -2.59002 -1.99263 -3.57518 -2.59002 -1.99263 -3.57518 -8.23268e-006 6.3206 1.23526e-005 -0.0595964 10.665 0.00959279 -10.9775 -4.87615 -39.8264 -41.4819 -5.82138 23.2472 -20.6936 15.3543 -57.4142 33.6265 -30.4489 -15.8615 -3.97569e-016 7.95139e-016 -0 3.70419e-009 -2.33206e-007 2.65783e-007 -1.98785e-016 0 -0 -3.97569e-016 7.95139e-016 -0 -0.0145925 -8.50573e-005 -1.75885e-006 5.96354e-016 -1.49089e-015 -0 -3.97569e-016 7.95139e-016 -0 -0.0187465 -0.00117484 5.68951e-005 7.55382e-015 1.16289e-014 -0 -3.97569e-016 7.95139e-016 -0 -0.0122668 -0.00324573 0.000680059 1.98626e-031 1.19271e-015 -9.54166e-015 -3.97569e-016 7.95139e-016 -0 3.70419e-009 -2.33206e-007 2.65783e-007 -1.98785e-016 0 -0 47.6255 -4.39818 -14.0615 33.7324 -4.30162 -15.7221 36.5199 15.9134 9.78543 46.4737 -45.1704 29.0193 0 0 -7.95139e-016 -3.03456e-032 7.95139e-016 2.18663e-015 0 0 -7.95139e-016 0 0 -7.95139e-016 0.0149878 -8.90521e-005 2.33896e-006 7.11465e-007 3.55419e-007 1.96337e-007 0 0 -7.95139e-016 0.018975 -0.0011883 -5.98382e-005 7.11841e-007 3.55323e-007 1.96312e-007 0 0 -7.95139e-016 0.0122588 -0.00324769 -0.000680412 -1.59028e-015 1.19271e-014 8.94531e-015 0 0 -7.95139e-016 -3.03456e-032 7.95139e-016 2.18663e-015 0 0 -7.95139e-016 -59.7088 -19.0173 -20.6903 -155.275 89.2182 153.365 51.0276 38.2158 -56.5895 1.31755e-007 -4.59309e-006 2.98319e-007 59.668 -19.0462 20.6141 159.331 89.2387 -157.412 -51.1279 38.1754 56.6451 7.27869e-007 -1.49903e-007 2.29673e-006 
1.62984 41.7198 2.1978 0 34.6262 -0 -1.27927 -1.01652 -1.77605 -2.59002 -1.99262 -3.57518 -2.59002 -1.99263 -3.57518 -7.40156e-005 5.68397 2.86424e-005 -0.0584432 9.63408 0.0095985 -10.8762 -5.06226 -39.8559 -41.4888 -5.82422 23.2308 -20.7568 15.4907 -57.7732 33.8302 -30.3646 -15.6978 6.95746e-015 1.0138e-014 -3.18055e-015 7.35503e-015 1.02374e-014 -0 7.15625e-015 1.07344e-014 -6.36111e-015 6.95746e-015 1.0138e-014 -3.18055e-015 -0.0145964 -8.8226e-005 -1.51999e-006 -3.97569e-016 0 6.36111e-015 6.95746e-015 1.0138e-014 -3.18055e-015 -0.0187166 -0.00116794 5.76627e-005 -3.97569e-016 -3.97569e-016 -3.18055e-015 6.95746e-015 1.0138e-014 -3.18055e-015 -0.0122402 -0.00323934 0.000679911 1.98785e-016 -1.98785e-016 -6.36111e-015 6.95746e-015 1.0138e-014 -3.18055e-015 7.35503e-015 1.02374e-014 -0 7.15625e-015 1.07344e-014 -6.36111e-015 47.6255 -4.39819 -14.0615 33.7107 -4.31623 -15.9179 36.5199 15.9135 9.78545 46.4737 -45.1704 29.0193 -2.38542e-015 0 2.08724e-015 -2.38542e-015 -1.19271e-015 -1.2424e-015 -2.38542e-015 -1.98785e-015 -4.77083e-015 -2.38542e-015 0 2.08724e-015 0.0150041 -8.90736e-005 -7.42659e-007 4.06907e-032 -3.97569e-016 5.86415e-015 -2.38542e-015 0 2.08724e-015 0.0190042 -0.0012008 -6.11994e-005 1.59028e-015 -7.95139e-016 -1.38155e-014 -2.38542e-015 0 2.08724e-015 0.0122765 -0.0032521 -0.000680965 -7.95139e-016 1.59028e-015 1.21756e-014 -2.38542e-015 0 2.08724e-015 -2.38542e-015 -1.19271e-015 -1.2424e-015 -2.38542e-015 -1.98785e-015 -4.77083e-015 -59.7394 -19.5983 -20.8593 -160.837 88.9278 158.917 51.3504 38.0756 -56.7622 1.39105e-006 2.59452e-006 4.44418e-006 59.6986 -19.6261 20.7832 163.855 88.9439 -161.927 -51.4494 38.035 56.8165 7.27807e-007 -1.49712e-007 2.29676e-006 
1.62985 41.7569 1.95003 0 35.0517 -0 -1.27927 -1.01653 -1.77605 -2.59003 -1.99263 -3.57518 -2.59002 -1.99262 -3.57518 1.06059e-005 5.04583 -3.1065e-006 -0.0567698 8.6004 0.0088179 -10.775 -5.24842 -39.885 -41.4957 -5.82703 23.2143 -20.8192 15.6275 -58.1323 34.0333 -30.2799 -15.5345 3.97569e-016 -9.93923e-017 1.59028e-014 -1.10348e-032 9.93923e-017 6.36111e-015 3.97569e-016 1.98785e-016 1.27222e-014 3.97569e-016 -9.93923e-017 1.59028e-014 -0.014623 -8.99887e-005 -3.56979e-006 5.96354e-016 3.97569e-016 -0 3.97569e-016 -9.93923e-017 1.59028e-014 -0.0187922 -0.00117896 5.87946e-005 1.98785e-016 -4.96962e-016 6.36111e-015 3.97569e-016 -9.93923e-017 1.59028e-014 -0.0122975 -0.00325017 0.000676026 -1.98785e-016 3.97569e-016 -0 3.97569e-016 -9.93923e-017 1.59028e-014 -1.10348e-032 9.93923e-017 6.36111e-015 3.97569e-016 1.98785e-016 1.27222e-014 47.6255 -4.39818 -14.0615 33.6889 -4.33076 -16.1136 36.5199 15.9134 9.78544 46.4737 -45.1704 29.0193 6.27751e-007 2.7613e-007 1.95707e-007 -1.59028e-015 7.95139e-016 1.49089e-015 -1.59028e-015 7.95139e-016 4.62174e-015 6.27751e-007 2.7613e-007 1.95707e-007 0.0150036 -9.62479e-005 -3.84277e-006 3.18055e-015 -1.98785e-015 -1.88845e-015 6.27751e-007 2.7613e-007 1.95707e-007 0.0190154 -0.00119726 -5.75467e-005 7.95139e-016 -7.95139e-016 6.36111e-015 6.27751e-007 2.7613e-007 1.95707e-007 0.012264 -0.00324943 -0.000675852 1.59028e-015 -1.19271e-015 -5.01931e-015 6.27751e-007 2.7613e-007 1.95707e-007 -1.59028e-015 7.95139e-016 1.49089e-015 -1.59028e-015 7.95139e-016 4.62174e-015 -59.7719 -20.179 -21.0293 -164.01 88.6316 162.081 51.6721 37.9346 -56.9335 7.28375e-007 1.48755e-007 2.29661e-006 59.7308 -20.2061 20.9532 166.399 88.6454 -164.462 -51.7698 37.8937 56.9866 -6.49356e-008 -2.2968e-006 -1.4949e-007 
